# xmcd
#
# Track frame offsets:
#	150
#	15227
#	30495
#	46098
#	63620
#	76550
#	90848
#	106931
#	120266
#	142325
#	158324
#
# Disc length: 2320 seconds
#
# Revision: 1
# Processed by: cddbd v1.5.2PL0 Copyright (c) Steve Scherf et al.
# Submitted via: audiograbber 1.83.01
#
DISCID=6b090e0b
DTITLE=Syldan - Mon Coeur Brisé
DYEAR=2007
DGENRE=Country
TTITLE0=Mon Coeur Brisé(Joey et Jimmy Tardif)
TTITLE1=Monsieur Thibodeau(André Stratford)
TTITLE2=Comme Je L'aime(Paul Daraiche-Paul Daraiche)
TTITLE3=T'aurais Dû(Raymonde Denis-Raymonde Denis)
TTITLE4=Quand Le Soleil Dit Bonjour Aux Montagnes(Harry Pease-Larry Vincent)
TTITLE5=Baby(Véronique Labbé-Véronique Labbé)
TTITLE6=Un Doux Baiser(Marie Josée Denis-Marie Josée Denis)
TTITLE7=Y'a T'il Quelqu'un(Paul Daraiche-Paul Daraiche)
TTITLE8=Oui à M'aime(Claude Kenny-Ricky Chouinard)
TTITLE9=Je Suis En Amour(André Stratford-André Stratford)
TTITLE10=24 Ans(Raymonde Denis-Raymonde Denis)
EXTD=
EXTT0=
EXTT1=
EXTT2=
EXTT3=
EXTT4=
EXTT5=
EXTT6=
EXTT7=
EXTT8=
EXTT9=
EXTT10=
PLAYORDER=
